<?xml version="1.0" standalone="no"?>
<!DOCTYPE svg PUBLIC "-//W3C//DTD SVG 20010904//EN"
 "http://www.w3.org/TR/2001/REC-SVG-20010904/DTD/svg10.dtd">
<svg version="1.0" xmlns="http://www.w3.org/2000/svg"
 width="688.000000pt" height="688.000000pt" viewBox="0 0 688.000000 688.000000"
 preserveAspectRatio="xMidYMid meet">
<metadata>
Created by potrace 1.14, written by Peter Selinger 2001-2017
</metadata>
<g transform="translate(0.000000,688.000000) scale(0.100000,-0.100000)"
fill="#000000" stroke="none">
<path d="M2205 6863 c-103 -36 -177 -144 -170 -251 15 -225 319 -316 473 -142
63 71 78 169 39 252 -14 29 -36 65 -49 79 -62 66 -196 95 -293 62z"/>
<path d="M4463 6854 c-205 -98 -202 -355 4 -451 130 -60 290 -6 354 119 46 90
24 211 -51 279 -58 53 -104 72 -185 75 -58 2 -79 -1 -122 -22z"/>
<path d="M3358 6535 c-1 -1 -30 -5 -63 -8 -192 -18 -388 -89 -560 -202 -87
-58 -196 -158 -265 -246 -40 -50 -94 -131 -93 -139 1 -3 -4 -12 -11 -20 -18
-22 -82 -168 -91 -210 -29 -129 -37 -177 -40 -244 -2 -43 -8 -82 -12 -85 -4
-4 -55 -29 -113 -56 -58 -28 -107 -52 -110 -55 -3 -3 -25 -16 -50 -29 -93 -50
-343 -219 -406 -276 -6 -5 -40 -35 -75 -65 -83 -72 -192 -181 -254 -254 -27
-32 -63 -73 -78 -90 -15 -17 -35 -43 -43 -58 -8 -16 -19 -28 -24 -28 -6 0 -10
-5 -10 -10 0 -6 -17 -34 -38 -63 -79 -107 -179 -287 -251 -452 -17 -38 -36
-78 -41 -87 -6 -10 -10 -26 -10 -36 0 -10 -5 -23 -12 -30 -7 -7 -9 -12 -5 -12
4 0 3 -9 -3 -19 -10 -21 -80 -258 -78 -269 0 -4 -1 -9 -2 -12 -2 -5 -6 -24
-13 -55 -3 -12 -9 -48 -13 -80 -8 -63 -10 -73 -14 -77 -7 -10 -15 -173 -15
-333 0 -203 6 -283 30 -413 3 -15 8 -43 11 -62 9 -56 61 -260 84 -325 59 -169
174 -419 234 -508 14 -21 26 -40 26 -42 0 -7 85 -130 145 -210 67 -89 88 -114
195 -227 71 -77 75 -79 90 -60 21 27 53 75 171 262 16 25 33 50 39 57 5 7 10
15 10 18 0 3 22 38 49 78 40 60 263 405 476 737 26 41 67 104 90 140 74 114
280 434 387 600 26 41 53 80 58 87 6 7 15 24 22 38 6 14 14 25 18 25 4 0 11
10 17 23 6 12 54 89 107 170 53 81 96 152 96 157 0 6 4 10 8 10 4 0 16 15 26
33 11 17 34 55 52 82 17 28 120 187 229 355 108 168 200 305 205 305 9 0 110
-150 110 -164 0 -5 4 -11 8 -13 4 -1 50 -69 102 -151 52 -81 120 -185 150
-232 30 -47 127 -198 215 -336 88 -138 165 -256 170 -262 6 -7 46 -68 89 -137
44 -69 122 -189 173 -268 51 -78 93 -145 93 -148 0 -3 5 -10 11 -17 5 -7 55
-82 110 -167 169 -262 195 -302 255 -395 33 -49 61 -94 64 -100 3 -5 30 -48
61 -95 30 -47 104 -161 165 -255 171 -267 192 -299 203 -312 6 -7 11 -15 11
-18 0 -3 19 -34 42 -68 l41 -61 94 100 c52 54 120 133 151 174 31 41 59 77 63
80 38 33 314 520 294 520 -4 0 3 17 13 38 20 37 56 136 61 165 0 4 8 23 16 43
8 20 17 46 19 58 2 11 12 50 21 86 9 36 19 76 21 90 2 14 6 34 9 46 3 12 7 39
10 60 4 21 8 50 11 64 26 150 26 560 0 690 -3 14 -7 41 -10 60 -17 133 -90
402 -146 535 -7 17 -19 46 -28 65 -8 19 -39 85 -70 145 -30 61 -60 120 -66
132 -6 13 -14 23 -18 23 -5 0 -8 5 -8 11 0 20 -175 273 -225 325 -5 6 -28 33
-50 59 -95 115 -271 280 -415 388 -41 32 -79 61 -85 65 -35 26 -186 122 -194
122 -5 0 -11 3 -13 8 -1 4 -19 15 -38 26 -76 41 -226 115 -252 125 -16 6 -28
16 -29 23 0 7 -2 42 -4 78 -3 69 -18 162 -36 220 -5 19 -12 42 -14 50 -6 27
-68 164 -87 192 -10 14 -18 29 -18 33 0 12 -108 153 -152 196 -185 188 -389
297 -663 355 -63 13 -307 28 -317 19z m-1254 -2430 c85 -18 181 -111 189 -185
2 -16 6 -32 9 -35 8 -8 -12 -106 -27 -135 -81 -154 -318 -183 -441 -53 -47 49
-66 96 -67 164 -3 165 157 281 337 244z m2861 -19 c94 -43 147 -121 147 -215
0 -67 -5 -91 -28 -128 -71 -111 -206 -158 -332 -116 -61 21 -143 103 -160 159
-21 71 -11 158 22 203 89 117 224 155 351 97z m-3510 -992 c17 -4 46 -17 66
-30 191 -120 141 -395 -82 -452 -85 -22 -212 14 -266 76 -123 138 -66 349 107
401 25 7 50 15 55 17 13 4 82 -2 120 -12z m4166 -12 c99 -44 159 -138 153
-238 -4 -66 -26 -115 -72 -162 -100 -99 -274 -103 -375 -8 -78 72 -101 139
-80 233 21 92 94 166 193 193 44 12 135 3 181 -18z"/>
<path d="M3360 3432 c-41 -64 -115 -180 -165 -257 -50 -77 -114 -176 -142
-220 -29 -44 -55 -85 -60 -90 -4 -6 -17 -26 -27 -45 -11 -19 -22 -37 -25 -40
-4 -3 -33 -48 -66 -100 -32 -52 -62 -97 -65 -100 -4 -3 -13 -16 -20 -30 -13
-24 -60 -98 -215 -335 -40 -60 -74 -114 -76 -120 -2 -5 -43 -68 -90 -140 -102
-156 -132 -205 -128 -209 4 -3 64 -37 154 -86 28 -15 73 -40 100 -55 28 -16
109 -61 180 -100 72 -40 150 -83 175 -97 25 -14 70 -39 100 -55 30 -17 82 -45
115 -63 33 -18 65 -36 70 -40 6 -4 51 -29 100 -55 50 -27 106 -58 125 -70 l36
-23 39 22 c22 12 69 37 105 57 74 41 137 76 230 127 36 20 79 44 95 54 17 10
39 22 50 27 11 5 45 23 75 41 30 18 84 48 120 67 36 19 79 42 97 53 17 10 67
38 110 61 43 24 96 53 118 66 22 13 48 26 58 29 9 4 17 10 17 14 0 4 11 11 25
14 23 6 37 36 16 36 -5 0 -11 8 -15 18 -3 9 -32 58 -65 107 -33 50 -78 119
-101 155 -23 36 -63 99 -90 140 -43 67 -150 232 -190 295 -8 13 -48 74 -88
137 -40 62 -78 122 -85 132 -7 11 -16 25 -20 30 -4 6 -58 90 -120 186 -61 96
-115 177 -119 178 -4 2 -8 8 -8 13 0 6 -22 43 -50 84 -27 41 -50 77 -50 80 0
4 -6 12 -12 20 -7 7 -40 56 -73 109 -33 52 -62 96 -65 96 -3 0 -39 -53 -80
-118z"/>
<path d="M4466 1278 c-66 -37 -121 -68 -122 -68 -2 0 -27 -14 -56 -31 -46 -27
-134 -77 -338 -191 -100 -56 -127 -71 -180 -101 -30 -18 -67 -38 -82 -47 -16
-8 -78 -43 -138 -77 l-111 -61 -142 80 c-78 44 -170 96 -204 114 -78 42 -163
91 -183 104 -8 6 -26 16 -40 23 -46 22 -235 130 -262 149 -16 11 -28 16 -28
12 0 -4 -8 0 -17 8 -10 8 -54 34 -98 58 -44 23 -91 51 -105 60 -14 10 -36 21
-50 25 -19 6 -9 -9 45 -72 39 -43 88 -100 110 -127 22 -27 49 -58 60 -71 29
-31 108 -123 147 -170 44 -53 79 -95 98 -115 8 -9 51 -58 95 -110 44 -52 86
-102 95 -110 8 -8 36 -40 60 -70 25 -30 54 -64 65 -76 11 -11 36 -40 55 -64
19 -24 49 -58 65 -77 17 -18 44 -50 60 -69 17 -20 35 -42 41 -48 5 -6 38 -44
73 -84 l62 -72 35 42 c20 24 50 59 67 79 18 19 52 59 77 88 25 30 53 63 63 75
11 11 35 41 55 65 21 24 42 49 48 55 5 6 43 49 83 96 132 154 166 193 186 216
30 34 204 237 261 304 12 14 79 92 149 173 70 82 125 150 123 151 -1 2 -57
-28 -122 -66z"/>
</g>
</svg>
